<svg xmlns="http://www.w3.org/2000/svg" viewBox="0 0 1440 320"><defs>
<linearGradient id="grad1" x1="0%" y1="0%" x2="100%" y2="0%">
      <stop offset="0%" style="stop-color:#77cbf0;stop-opacity:1" />
      <stop offset="100%" style="stop-color:#f0a5cb;stop-opacity:1" />
    </linearGradient>
  </defs>
  <path fill="url(#grad1)" fill-opacity="1" d="M0,288L21.8,256C43.6,224,87,160,131,117.3C174.5,75,218,53,262,42.7C305.5,32,349,32,393,74.7C436.4,117,480,203,524,250.7C567.3,299,611,309,655,261.3C698.2,213,742,107,785,96C829.1,85,873,171,916,208C960,245,1004,235,1047,192C1090.9,149,1135,75,1178,74.7C1221.8,75,1265,149,1309,192C1352.7,235,1396,245,1418,250.7L1440,256L1440,320L1418.2,320C1396.4,320,1353,320,1309,320C1265.5,320,1222,320,1178,320C1134.5,320,1091,320,1047,320C1003.6,320,960,320,916,320C872.7,320,829,320,785,320C741.8,320,698,320,655,320C610.9,320,567,320,524,320C480,320,436,320,393,320C349.1,320,305,320,262,320C218.2,320,175,320,131,320C87.3,320,44,320,22,320L0,320Z"></path></svg>