<svg xmlns="http://www.w3.org/2000/svg" viewBox="0 0 1440 320"><defs>
    <linearGradient id="grad1" x1="0%" y1="0%" x2="100%" y2="0%">
      <stop offset="0%" style="stop-color:#77cbf0;stop-opacity:1" />
      <stop offset="100%" style="stop-color:#f0a5cb;stop-opacity:1" />
    </linearGradient>
  </defs>
  <path fill="url(#grad1)" fill-opacity="1" d="M0,256L21.8,218.7C43.6,181,87,107,131,106.7C174.5,107,218,181,262,202.7C305.5,224,349,192,393,165.3C436.4,139,480,117,524,133.3C567.3,149,611,203,655,240C698.2,277,742,299,785,266.7C829.1,235,873,149,916,149.3C960,149,1004,235,1047,250.7C1090.9,267,1135,213,1178,202.7C1221.8,192,1265,224,1309,240C1352.7,256,1396,256,1418,256L1440,256L1440,0L1418.2,0C1396.4,0,1353,0,1309,0C1265.5,0,1222,0,1178,0C1134.5,0,1091,0,1047,0C1003.6,0,960,0,916,0C872.7,0,829,0,785,0C741.8,0,698,0,655,0C610.9,0,567,0,524,0C480,0,436,0,393,0C349.1,0,305,0,262,0C218.2,0,175,0,131,0C87.3,0,44,0,22,0L0,0Z"></path></svg>