<?xml version="1.0" encoding="UTF-8"?>
<svg version="1.1" xmlns="http://www.w3.org/2000/svg" width="500" height="500">
<path d="M0 0 C2.78888455 -0.00434331 5.57614304 -0.04068316 8.36474609 -0.07861328 C24.46528241 -0.18006353 39.99119125 2.19389606 55.25927734 7.43310547 C56.11360352 7.72419189 56.96792969 8.01527832 57.84814453 8.31518555 C77.87206131 15.46109739 99.32862359 27.48867286 113.82177734 43.37060547 C113.82177734 44.03060547 113.82177734 44.69060547 113.82177734 45.37060547 C114.48177734 45.37060547 115.14177734 45.37060547 115.82177734 45.37060547 C115.82177734 46.03060547 115.82177734 46.69060547 115.82177734 47.37060547 C116.48177734 47.37060547 117.14177734 47.37060547 117.82177734 47.37060547 C117.82177734 48.03060547 117.82177734 48.69060547 117.82177734 49.37060547 C118.48177734 49.37060547 119.14177734 49.37060547 119.82177734 49.37060547 C135.63360575 66.45464996 147.07447637 88.22156189 153.82177734 110.37060547 C154.06879395 111.1564502 154.31581055 111.94229492 154.5703125 112.75195312 C164.29271359 144.96101654 161.82667862 187.0120193 146.13427734 216.93310547 C143.71919693 221.54288501 143.71919693 221.54288501 141.82177734 226.37060547 C141.16177734 226.37060547 140.50177734 226.37060547 139.82177734 226.37060547 C139.44859375 227.65257812 139.44859375 227.65257812 139.06787109 228.96044922 C137.73715507 232.6021893 135.99134535 235.70627084 133.88427734 238.93310547 C133.48877686 239.54025391 133.09327637 240.14740234 132.68579102 240.77294922 C126.26814614 250.40378737 118.53381584 258.8127476 110.44677734 267.05810547 C109.57243042 267.95916016 109.57243042 267.95916016 108.68041992 268.87841797 C105.59686735 271.95619527 103.11368105 274.12482817 98.82177734 275.37060547 C98.82177734 276.03060547 98.82177734 276.69060547 98.82177734 277.37060547 C97.35986328 278.51220703 97.35986328 278.51220703 95.30615234 279.76123047 C94.55591797 280.22045898 93.80568359 280.6796875 93.03271484 281.15283203 C91.81455078 281.87937988 91.81455078 281.87937988 90.57177734 282.62060547 C89.74419922 283.11786133 88.91662109 283.61511719 88.06396484 284.12744141 C81.78845757 287.86390972 75.50621969 291.40987852 68.82177734 294.37060547 C68.19432617 294.64855957 67.566875 294.92651367 66.92041016 295.21289062 C48.36383545 303.28574852 28.97154336 307.17385896 8.82177734 308.37060547 C7.65001953 308.44279297 6.47826172 308.51498047 5.27099609 308.58935547 C-22.50755359 309.38778085 -50.81211188 301.38432372 -75.17822266 288.37060547 C-75.17822266 287.71060547 -75.17822266 287.05060547 -75.17822266 286.37060547 C-75.73123047 286.27005859 -76.28423828 286.16951172 -76.85400391 286.06591797 C-84.76940092 283.69795046 -93.18349043 276.98049069 -99.17822266 271.37060547 C-99.17822266 270.71060547 -99.17822266 270.05060547 -99.17822266 269.37060547 C-99.83822266 269.37060547 -100.49822266 269.37060547 -101.17822266 269.37060547 C-101.17822266 268.71060547 -101.17822266 268.05060547 -101.17822266 267.37060547 C-101.76345703 267.10892578 -102.34869141 266.84724609 -102.95166016 266.57763672 C-109.44295087 263.05867386 -114.08364115 256.42332282 -118.55322266 250.68310547 C-118.98199707 250.13678467 -119.41077148 249.59046387 -119.85253906 249.02758789 C-122.2044152 245.94162995 -123.93575485 243.05022167 -125.17822266 239.37060547 C-125.83822266 239.37060547 -126.49822266 239.37060547 -127.17822266 239.37060547 C-127.55333984 238.68095703 -127.92845703 237.99130859 -128.31494141 237.28076172 C-128.82669922 236.34103516 -129.33845703 235.40130859 -129.86572266 234.43310547 C-130.41486328 233.41990234 -130.96400391 232.40669922 -131.52978516 231.36279297 C-132.49893331 229.60362831 -133.48612593 227.85383214 -134.51416016 226.12841797 C-137.79039553 220.59846654 -139.91177526 214.88405044 -141.96728516 208.80029297 C-143.14081794 205.33530436 -143.14081794 205.33530436 -144.69775391 201.94091797 C-146.28514787 198.1127436 -147.32643005 194.40031743 -148.24072266 190.37060547 C-148.40991211 189.62641357 -148.57910156 188.88222168 -148.75341797 188.11547852 C-157.05108832 150.53214793 -150.57991508 113.07441208 -133.09521484 79.15625 C-131.76799882 76.57178301 -130.47268603 73.97159244 -129.17822266 71.37060547 C-128.51822266 71.37060547 -127.85822266 71.37060547 -127.17822266 71.37060547 C-127.07638672 70.80599609 -126.97455078 70.24138672 -126.86962891 69.65966797 C-124.46722088 61.70593292 -116.75259653 53.39349218 -111.17822266 47.37060547 C-110.51822266 47.37060547 -109.85822266 47.37060547 -109.17822266 47.37060547 C-109.17822266 46.71060547 -109.17822266 46.05060547 -109.17822266 45.37060547 C-108.51822266 45.37060547 -107.85822266 45.37060547 -107.17822266 45.37060547 C-107.17822266 44.71060547 -107.17822266 44.05060547 -107.17822266 43.37060547 C-106.51822266 43.37060547 -105.85822266 43.37060547 -105.17822266 43.37060547 C-105.17822266 42.71060547 -105.17822266 42.05060547 -105.17822266 41.37060547 C-104.51822266 41.37060547 -103.85822266 41.37060547 -103.17822266 41.37060547 C-103.17822266 40.71060547 -103.17822266 40.05060547 -103.17822266 39.37060547 C-102.51822266 39.37060547 -101.85822266 39.37060547 -101.17822266 39.37060547 C-101.17822266 38.71060547 -101.17822266 38.05060547 -101.17822266 37.37060547 C-98.98590718 35.56945001 -96.79353912 33.89549262 -94.49072266 32.24560547 C-93.8059082 31.75205566 -93.12109375 31.25850586 -92.41552734 30.75 C-75.7165434 18.83486115 -58.02750173 9.71381681 -38.17822266 4.37060547 C-36.95490234 4.03931641 -35.73158203 3.70802734 -34.47119141 3.36669922 C-33.04259091 3.02453471 -31.6113473 2.69329682 -30.17822266 2.37060547 C-28.9722644 2.09494751 -28.9722644 2.09494751 -27.74194336 1.8137207 C-18.54386449 -0.00728506 -9.33996585 -0.00162012 0 0 Z M-114.17822266 86.37060547 C-114.17822266 130.92060547 -114.17822266 175.47060547 -114.17822266 221.37060547 C-77.35884251 224.65527882 -77.35884251 224.65527882 -43.17822266 210.37060547 C-42.55560547 209.76216797 -41.93298828 209.15373047 -41.29150391 208.52685547 C-33.70722371 200.5132764 -31.50632839 192.77156673 -31.67822266 181.87060547 C-31.66275391 180.88962891 -31.64728516 179.90865234 -31.63134766 178.89794922 C-31.67538354 170.63021133 -33.6593427 163.55774218 -39.30322266 157.30810547 C-39.80080078 156.73962891 -40.29837891 156.17115234 -40.81103516 155.58544922 C-42.12257388 154.14919505 -42.12257388 154.14919505 -44.17822266 154.37060547 C-44.36572266 151.99560547 -44.36572266 151.99560547 -44.17822266 149.37060547 C-43.18822266 148.71060547 -42.19822266 148.05060547 -41.17822266 147.37060547 C-41.17822266 146.71060547 -41.17822266 146.05060547 -41.17822266 145.37060547 C-40.51822266 145.37060547 -39.85822266 145.37060547 -39.17822266 145.37060547 C-38.37990809 143.9994545 -37.58991655 142.62345663 -36.80322266 141.24560547 C-36.14193359 140.09705078 -36.14193359 140.09705078 -35.46728516 138.92529297 C-31.31369975 130.69364189 -30.6218193 121.39137504 -33.42822266 112.55810547 C-33.98741584 111.15242718 -34.57019162 109.75585878 -35.17822266 108.37060547 C-35.43345703 107.69513672 -35.68869141 107.01966797 -35.95166016 106.32373047 C-39.47990134 97.9724807 -47.147603 92.1668984 -55.17822266 88.37060547 C-74.26865074 83.59799845 -94.5002598 86.37060547 -114.17822266 86.37060547 Z M7.82177734 86.37060547 C7.82177734 130.92060547 7.82177734 175.47060547 7.82177734 221.37060547 C14.09177734 221.37060547 20.36177734 221.37060547 26.82177734 221.37060547 C26.8468335 218.67976807 26.87188965 215.98893066 26.89770508 213.21655273 C26.98100657 204.34763531 27.06971431 195.47877798 27.1611166 186.60994053 C27.21639173 181.23029743 27.26981893 175.85064895 27.3190918 170.47094727 C27.36666782 165.28380876 27.41900791 160.09673862 27.47471809 154.90968132 C27.49517239 152.92606231 27.51388027 150.94242453 27.53085136 148.95877266 C27.55482757 146.19046331 27.58489099 143.42228445 27.61645508 140.65405273 C27.62221054 139.82543228 27.627966 138.99681183 27.63389587 138.14308167 C27.70772518 132.48465763 27.70772518 132.48465763 28.82177734 131.37060547 C41.81371028 160.08884388 41.81371028 160.08884388 46.49755859 171.73706055 C48.57028058 176.85862702 50.88170427 181.84175626 53.25756836 186.82861328 C56.43225448 193.55063085 59.12644684 200.44452399 61.82177734 207.37060547 C62.48652698 209.03803767 63.15240242 210.70502466 63.82177734 212.37060547 C67.2274281 209.68615135 68.21134331 206.07345861 69.57177734 202.12060547 C73.02528741 192.50089826 77.24005444 183.31743429 81.94677734 174.24560547 C83.51948656 171.15261068 84.73957124 167.99835525 85.94677734 164.74560547 C88.7302388 157.32885863 92.03039717 150.16650597 95.34375 142.97363281 C95.76317871 142.06307129 96.18260742 141.15250977 96.61474609 140.21435547 C96.99139404 139.40160156 97.36804199 138.58884766 97.75610352 137.75146484 C98.50875666 136.06993599 99.19595186 134.35837728 99.8347168 132.63037109 C100.82177734 130.37060547 100.82177734 130.37060547 102.82177734 129.37060547 C102.82177734 159.73060547 102.82177734 190.09060547 102.82177734 221.37060547 C108.76177734 221.37060547 114.70177734 221.37060547 120.82177734 221.37060547 C120.82177734 176.82060547 120.82177734 132.27060547 120.82177734 86.37060547 C114.22177734 86.37060547 107.62177734 86.37060547 100.82177734 86.37060547 C98.9476723 89.49411388 97.28826915 92.33742298 95.77099609 95.59326172 C95.40514404 96.37338623 95.03929199 97.15351074 94.66235352 97.95727539 C94.28183838 98.77429932 93.90132324 99.59132324 93.50927734 100.43310547 C89.69038991 108.56656774 85.74718966 116.61928465 81.67333984 124.62841797 C79.55750641 128.81235927 77.61647328 133.03829296 75.82177734 137.37060547 C75.26683594 138.69898438 75.26683594 138.69898438 74.70068359 140.05419922 C74.08 141.54113281 74.08 141.54113281 73.44677734 143.05810547 C73.01880859 144.07904297 72.59083984 145.09998047 72.14990234 146.15185547 C71.24240321 148.35120631 70.35795501 150.56017333 69.49365234 152.77685547 C69.06568359 153.85966797 68.63771484 154.94248047 68.19677734 156.05810547 C67.81263672 157.05197266 67.42849609 158.04583984 67.03271484 159.06982422 C65.82177734 161.37060547 65.82177734 161.37060547 62.82177734 162.37060547 C62.70189453 161.83435547 62.58201172 161.29810547 62.45849609 160.74560547 C60.13845348 152.09170417 56.23527448 143.99371509 52.15380859 136.05810547 C51.08362487 133.89890782 50.18073433 131.82532045 49.38427734 129.55810547 C47.31525249 123.72178101 44.5263438 118.17948827 41.87353516 112.59179688 C40.7321955 110.18141892 39.60077364 107.76652646 38.47021484 105.35107422 C37.67093113 103.6491595 36.87145445 101.94733538 36.07177734 100.24560547 C35.50692627 99.03747192 35.50692627 99.03747192 34.93066406 97.80493164 C34.5698877 97.04027588 34.20911133 96.27562012 33.83740234 95.48779297 C33.36222168 94.47628174 33.36222168 94.47628174 32.87744141 93.44433594 C31.64439554 91.02215935 30.22015954 88.70124246 28.82177734 86.37060547 C21.89177734 86.37060547 14.96177734 86.37060547 7.82177734 86.37060547 Z M-22.17822266 148.37060547 C-23.08190851 152.19389178 -23.74645967 155.66386343 -22.17822266 159.37060547 C-19.5836416 160.667896 -17.57374668 160.57488667 -14.67822266 160.62060547 C-13.69853516 160.64638672 -12.71884766 160.67216797 -11.70947266 160.69873047 C-10.87416016 160.59044922 -10.03884766 160.48216797 -9.17822266 160.37060547 C-6.50530327 156.36122638 -6.48521495 153.08130342 -7.17822266 148.37060547 C-8.60104905 146.11597297 -8.60104905 146.11597297 -11.17822266 145.37060547 C-15.75412926 144.88032976 -19.0913207 144.69006852 -22.17822266 148.37060547 Z M-23.17822266 206.37060547 C-24.24030608 209.27363351 -24.39135224 210.67309047 -23.49072266 213.62060547 C-22.29667426 215.54972741 -22.29667426 215.54972741 -20.05322266 216.12060547 C-19.43447266 216.20310547 -18.81572266 216.28560547 -18.17822266 216.37060547 C-18.17822266 217.03060547 -18.17822266 217.69060547 -18.17822266 218.37060547 C-14.13669859 218.13744062 -11.84019501 217.94770957 -8.74072266 215.24560547 C-6.76562665 211.61142881 -6.58458493 209.45186483 -7.17822266 205.37060547 C-8.59488932 202.78727214 -8.59488932 202.78727214 -11.17822266 201.37060547 C-17.08490182 200.40405797 -19.59951611 201.6340821 -23.17822266 206.37060547 Z " fill="#212F38" transform="translate(248.17822265625,79.62939453125)"/>
<path d="M0 0 C1.2573999 0.03915527 2.5147998 0.07831055 3.81030273 0.11865234 C5.00985596 0.16070801 6.20940918 0.20276367 7.4453125 0.24609375 C9.05043701 0.30108032 9.05043701 0.30108032 10.68798828 0.35717773 C13.875 0.5625 13.875 0.5625 17.13330078 1.07397461 C21.83476493 1.68780925 26.43618275 1.70559436 31.171875 1.6953125 C32.16012268 1.69626923 33.14837036 1.69722595 34.16656494 1.69821167 C36.25769108 1.69889035 38.34881935 1.69705785 40.43994141 1.69287109 C43.5732931 1.6875872 46.70649689 1.69279086 49.83984375 1.69921875 C59.80120001 1.70232991 69.70461559 1.53253074 79.64755249 0.9276886 C89.1306269 0.38083052 98.61787687 0.37645093 108.11425781 0.37719727 C111.29505002 0.37496843 114.47551682 0.35660368 117.65625 0.33789062 C119.69531133 0.33496304 121.73437428 0.332974 123.7734375 0.33203125 C125.18742325 0.32125298 125.18742325 0.32125298 126.62997437 0.31025696 C131.14891742 0.32606904 134.77732794 0.40123764 138.875 2.5625 C138.6875 5.875 138.6875 5.875 137.875 9.5625 C134.02407017 12.6446675 130.71508011 12.98930706 125.875 13.1875 C121.74285467 13.3745152 117.92100079 13.75080231 113.875 14.5625 C110.07494704 14.85989545 106.27437406 15.06813505 102.46875 15.28125 C99.0814148 15.45834501 99.0814148 15.45834501 96.6497345 16.07099915 C93.05608451 16.70755808 89.52213752 16.70999342 85.88549805 16.70776367 C84.69864914 16.71280159 84.69864914 16.71280159 83.48782349 16.71794128 C80.87077251 16.72743671 78.25378589 16.72939523 75.63671875 16.73046875 C73.79563878 16.73368775 71.95455906 16.73705229 70.11347961 16.74055481 C66.24239513 16.74654643 62.37133294 16.74839522 58.50024414 16.74780273 C54.5757174 16.74772215 50.65130904 16.75455221 46.72680664 16.76831055 C-5.58773429 16.94921114 -5.58773429 16.94921114 -19.125 13.5625 C-21.12329013 13.41262824 -23.12374669 13.29050569 -25.125 13.1875 C-42.73236422 11.91707011 -42.73236422 11.91707011 -48.125 6.5625 C-48.125 5.2425 -48.125 3.9225 -48.125 2.5625 C-35.79944296 -4.50530194 -13.76339584 -0.44340065 0 0 Z " fill="#8F9999" transform="translate(206.125,394.4375)"/>
<path d="M0 0 C1.16015625 -0.020625 2.3203125 -0.04125 3.515625 -0.0625 C11.69752367 -0.09952217 18.94451517 0.23556721 25.375 5.6875 C26.07625 6.533125 26.7775 7.37875 27.5 8.25 C28.36625 9.11625 28.36625 9.11625 29.25 10 C31.72118681 14.44813626 32.10050934 18.97616125 30.8046875 23.8828125 C28.59242315 29.71831295 26.33927327 34.59068446 20.79296875 37.83203125 C15.35027597 40.07347289 9.43948043 39.8402178 3.63671875 39.95849609 C1.60868347 40.00033663 -0.41793095 40.06295528 -2.4453125 40.12890625 C-9.61937452 40.32495855 -9.61937452 40.32495855 -12.5 40.25 C-14.34276509 38.40723491 -13.62874411 35.82036241 -13.63894653 33.36865234 C-13.6369223 32.54574707 -13.63489807 31.7228418 -13.6328125 30.875 C-13.63376923 30.03533691 -13.63472595 29.19567383 -13.63571167 28.33056641 C-13.63639348 26.55175705 -13.63453917 24.77294523 -13.63037109 22.99414062 C-13.62502283 20.26166224 -13.63031605 17.52934824 -13.63671875 14.796875 C-13.63605797 13.0729163 -13.63477681 11.34895771 -13.6328125 9.625 C-13.63483673 8.80209473 -13.63686096 7.97918945 -13.63894653 7.13134766 C-13.59902807 -2.46132794 -8.33169603 0.03606795 0 0 Z " fill="#222E38" transform="translate(166.5,240.75)"/>
<path d="M0 0 C1.08317505 0.00012085 1.08317505 0.00012085 2.18823242 0.00024414 C4.38089652 -0.00193376 6.5730506 -0.02006101 8.765625 -0.0390625 C10.16080557 -0.04199812 11.55598853 -0.04398179 12.95117188 -0.04492188 C14.85829956 -0.05108521 14.85829956 -0.05108521 16.80395508 -0.05737305 C19.86134789 0.16878901 21.53507424 0.56642358 24.08789062 2.18554688 C24.08789062 2.84554687 24.08789062 3.50554687 24.08789062 4.18554688 C24.68601563 4.41242188 25.28414062 4.63929688 25.90039062 4.87304688 C29.91908837 7.28426552 30.88168939 10.38823545 32.02539062 14.81054688 C32.54163356 20.35225676 30.57008011 25.30757324 28.08789062 30.18554688 C24.13135916 34.45443609 19.50736265 36.02123338 13.74462891 36.41259766 C12.5611084 36.40212402 11.37758789 36.39165039 10.15820312 36.38085938 C8.86914062 36.37441406 7.58007812 36.36796875 6.25195312 36.36132812 C4.9055962 36.34462151 3.55924204 36.32769167 2.21289062 36.31054688 C0.84310545 36.30050351 -0.52668679 36.29138004 -1.89648438 36.28320312 C-5.23520693 36.25969099 -8.57356698 36.22682617 -11.91210938 36.18554688 C-11.93676035 31.21932338 -11.95494586 26.25313521 -11.96704102 21.28686523 C-11.97208127 19.59610372 -11.97891342 17.90534658 -11.98754883 16.21459961 C-11.99962794 13.78953981 -12.0053406 11.36453744 -12.00976562 8.93945312 C-12.01492691 8.17903214 -12.0200882 7.41861115 -12.02540588 6.63514709 C-12.02560175 4.81822117 -11.97408214 3.0014156 -11.91210938 1.18554688 C-9.44965163 -1.27691087 -3.44837491 0.01217631 0 0 Z " fill="#26333D" transform="translate(164.912109375,185.814453125)"/>
<path d="M0 0 C0 0.66 0 1.32 0 2 C-7.76336238 2.26294092 -15.52678982 2.52386409 -23.29030323 2.78230286 C-26.89628696 2.90240357 -30.50224587 3.02316559 -34.1081543 3.14550781 C-37.59646611 3.26383468 -41.08483483 3.38033449 -44.57324791 3.49563599 C-46.53331456 3.56087842 -48.49332005 3.62795009 -50.45332336 3.69506836 C-57.63891545 3.93082193 -64.81056283 4.05821921 -72 4 C-72 3.67 -72 3.34 -72 3 C-48.10298657 -0.67921134 -24.10848544 -0.12005298 0 0 Z " fill="#838A87" transform="translate(331,395)"/>
<path d="M0 0 C0.33 0 0.66 0 1 0 C1 17.16 1 34.32 1 52 C0.67 52 0.34 52 0 52 C0 44.74 0 37.48 0 30 C-0.99 30.33 -1.98 30.66 -3 31 C-4.5625 29.875 -4.5625 29.875 -6 28 C-5.6875 24.8125 -5.6875 24.8125 -5 22 C-4.34 22 -3.68 22 -3 22 C-2.67 21.01 -2.34 20.02 -2 19 C-1.34 19 -0.68 19 0 19 C0 12.73 0 6.46 0 0 Z " fill="#101A24" transform="translate(254,248)"/>
<path d="M0 0 C0.33 0 0.66 0 1 0 C1.06940864 10.52650451 1.12276466 21.05295489 1.15543652 31.57964134 C1.17111475 36.46723875 1.19239219 41.35467999 1.22631836 46.2421875 C1.25883513 50.955975 1.27683675 55.66961199 1.28463173 60.38350296 C1.2901891 62.18491614 1.30104082 63.98632077 1.31719017 65.78767014 C1.33886268 68.30443084 1.34197125 70.82056385 1.34057617 73.33740234 C1.35675491 74.46273125 1.35675491 74.46273125 1.3732605 75.61079407 C1.36076355 77.68441772 1.36076355 77.68441772 1 81 C-0.485 81.99 -0.485 81.99 -2 83 C-2 81 -2 79 -2 77 C-1.34 77 -0.68 77 0 77 C-0.14076315 75.0412957 -0.2877676 73.08303907 -0.4375 71.125 C-0.51871094 70.03445312 -0.59992188 68.94390625 -0.68359375 67.8203125 C-0.83001703 65.05271029 -0.83001703 65.05271029 -2 63 C-2 60 -2 60 -1 58 C-0.88029939 56.15218458 -0.8227304 54.3002064 -0.79467773 52.44873047 C-0.7647599 50.70715164 -0.7647599 50.70715164 -0.73423767 48.9303894 C-0.71752518 47.67203278 -0.70081268 46.41367615 -0.68359375 45.1171875 C-0.66281265 43.83264679 -0.64203156 42.54810608 -0.62062073 41.22463989 C-0.56540951 37.80850641 -0.51599612 34.39231255 -0.46777344 30.97607422 C-0.41755143 27.49050519 -0.36186903 24.00502391 -0.30664062 20.51953125 C-0.19907072 13.67976358 -0.09762316 6.83991666 0 0 Z " fill="#0D141C" transform="translate(254,165)"/>
<path d="M0 0 C0.66 0.33 1.32 0.66 2 1 C1.34 2.98 0.68 4.96 0 7 C-3.375 7.125 -3.375 7.125 -7 7 C-7.66 6.34 -8.32 5.68 -9 5 C-9 3.68 -9 2.36 -9 1 C-5.64406166 -1.11299821 -3.77811119 -1.09366377 0 0 Z " fill="#969C9A" transform="translate(167,396)"/>
<path d="M0 0 C0.33 0.66 0.66 1.32 1 2 C0.00390625 4.3828125 0.00390625 4.3828125 -1.4375 7.125 C-1.91058594 8.03507813 -2.38367188 8.94515625 -2.87109375 9.8828125 C-3.24363281 10.58148438 -3.61617188 11.28015625 -4 12 C-4.99 12 -5.98 12 -7 12 C-7.53012738 10.71211992 -8.0488329 9.41953322 -8.5625 8.125 C-8.85253906 7.40570313 -9.14257812 6.68640625 -9.44140625 5.9453125 C-10 4 -10 4 -9 2 C-7.02 2.66 -5.04 3.32 -3 4 C-2.67 3.01 -2.34 2.02 -2 1 C-1.34 0.67 -0.68 0.34 0 0 Z " fill="#474E56" transform="translate(318,230)"/>
<path d="M0 0 C0.66 0 1.32 0 2 0 C1.67 1.32 1.34 2.64 1 4 C2.98 4 4.96 4 7 4 C7 4.66 7 5.32 7 6 C8.32 6.33 9.64 6.66 11 7 C11 7.99 11 8.98 11 10 C11.66 10 12.32 10 13 10 C13.33 9.34 13.66 8.68 14 8 C14.66 8.33 15.32 8.66 16 9 C16 9.99 16 10.98 16 12 C16.66 12.33 17.32 12.66 18 13 C17.67 13.66 17.34 14.32 17 15 C16.01 14.67 15.02 14.34 14 14 C14 13.34 14 12.68 14 12 C13.45730469 11.90589844 12.91460937 11.81179688 12.35546875 11.71484375 C9.31329388 10.79159665 6.98486871 9.27866736 4.3125 7.5625 C3.33925781 6.94503906 2.36601562 6.32757813 1.36328125 5.69140625 C-1 4 -1 4 -2 2 C-1.34 2 -0.68 2 0 2 C0 1.34 0 0.68 0 0 Z " fill="#464F54" transform="translate(159,354)"/>
<path d="M0 0 C0.66 0 1.32 0 2 0 C2 8.25 2 16.5 2 25 C1.67 25 1.34 25 1 25 C0.67 20.05 0.34 15.1 0 10 C-0.99 10.99 -1.98 11.98 -3 13 C-3.66 13 -4.32 13 -5 13 C-4.54803755 11.39402675 -4.08817673 9.79027492 -3.625 8.1875 C-3.36976563 7.29417969 -3.11453125 6.40085938 -2.8515625 5.48046875 C-2 3 -2 3 0 0 Z " fill="#6E767A" transform="translate(349,209)"/>
<path d="M0 0 C0.66 0.33 1.32 0.66 2 1 C1.01 2.485 1.01 2.485 0 4 C-0.66 4 -1.32 4 -2 4 C-2 4.66 -2 5.32 -2 6 C-2.66 6 -3.32 6 -4 6 C-4 6.66 -4 7.32 -4 8 C-10.625 12 -10.625 12 -14 12 C-14 12.66 -14 13.32 -14 14 C-14.66 14 -15.32 14 -16 14 C-16 14.66 -16 15.32 -16 16 C-16.99 15.67 -17.98 15.34 -19 15 C-18.34 15 -17.68 15 -17 15 C-17 14.34 -17 13.68 -17 13 C-16.34 13 -15.68 13 -15 13 C-15 12.34 -15 11.68 -15 11 C-13.62304688 9.76318359 -13.62304688 9.76318359 -11.71875 8.3984375 C-11.04199219 7.90859375 -10.36523438 7.41875 -9.66796875 6.9140625 C-8.95253906 6.40617187 -8.23710937 5.89828125 -7.5 5.375 C-6.42685547 4.6015625 -6.42685547 4.6015625 -5.33203125 3.8125 C-3.55879571 2.53577041 -1.78140052 1.26529973 0 0 Z " fill="#50585B" transform="translate(162,106)"/>
<path d="M0 0 C1.65 0.33 3.3 0.66 5 1 C5.6875 2.6875 5.6875 2.6875 6 5 C4.6875 7.4375 4.6875 7.4375 3 10 C2.649375 10.9075 2.29875 11.815 1.9375 12.75 C1 15 1 15 -1 16 C-0.67 10.72 -0.34 5.44 0 0 Z " fill="#101E27" transform="translate(242,224)"/>
<path d="M0 0 C2.0320441 3.0084165 1.92385842 4.49450176 1.4765625 8.05859375 C1.37085938 9.03183594 1.26515625 10.00507813 1.15625 11.0078125 C0.97320312 11.78769531 0.79015625 12.56757813 0.6015625 13.37109375 C-0.3884375 13.86609375 -0.3884375 13.86609375 -1.3984375 14.37109375 C-1.36363281 13.60023438 -1.32882813 12.829375 -1.29296875 12.03515625 C-1.26589844 11.03226563 -1.23882812 10.029375 -1.2109375 8.99609375 C-1.17613281 7.99835938 -1.14132813 7.000625 -1.10546875 5.97265625 C-1.20214844 5.11414063 -1.29882812 4.255625 -1.3984375 3.37109375 C-5.07959287 0.91699017 -7.05137348 1.13821532 -11.3984375 1.37109375 C-12.3884375 1.70109375 -13.3784375 2.03109375 -14.3984375 2.37109375 C-14.3984375 1.38109375 -14.3984375 0.39109375 -14.3984375 -0.62890625 C-12.48544612 -0.90562827 -10.56765814 -1.1493344 -8.6484375 -1.37890625 C-7.58109375 -1.518125 -6.51375 -1.65734375 -5.4140625 -1.80078125 C-2.3984375 -1.62890625 -2.3984375 -1.62890625 0 0 Z " fill="#596069" transform="translate(241.3984375,224.62890625)"/>
<path d="M0 0 C0.66 1.32 1.32 2.64 2 4 C0.35 4.33 -1.3 4.66 -3 5 C-3 6.65 -3 8.3 -3 10 C-3.66 10 -4.32 10 -5 10 C-5.33 10.99 -5.66 11.98 -6 13 C-8.0625 13.6875 -8.0625 13.6875 -10 14 C-8.62815653 9.93501119 -6.77931541 7.32603439 -3.875 4.1875 C-3.15054688 3.39730469 -2.42609375 2.60710937 -1.6796875 1.79296875 C-1.12539062 1.20128906 -0.57109375 0.60960937 0 0 Z " fill="#4A5256" transform="translate(135,130)"/>
<path d="M0 0 C3.96974635 0.56710662 6.76098995 1.61336101 10 4 C11.8125 6.6875 11.8125 6.6875 13 9 C12.01 9.495 12.01 9.495 11 10 C9.82780457 9.21654285 8.66236332 8.42297164 7.5 7.625 C6.8503125 7.18414062 6.200625 6.74328125 5.53125 6.2890625 C5.0259375 5.86367188 4.520625 5.43828125 4 5 C4 4.34 4 3.68 4 3 C3.34 3 2.68 3 2 3 C2 2.34 2 1.68 2 1 C1.34 0.67 0.68 0.34 0 0 Z " fill="#4A5255" transform="translate(145,346)"/>
<path d="M0 0 C0 3.33701712 -0.77982378 5.59321641 -2.4453125 8.48046875 C-5.14539665 11.11949572 -8.32951986 10.90690601 -11.953125 11.02734375 C-12.62859375 11.01832031 -13.3040625 11.00929688 -14 11 C-11.70758095 9.25598292 -9.42297671 7.62733913 -7 6.0625 C-4.32520974 4.2235817 -2.20031375 2.36956865 0 0 Z " fill="#5A6268" transform="translate(208,286)"/>
<path d="M0 0 C4.11196775 6.16795162 4.26793858 13.76565833 4 21 C3.67 21 3.34 21 3 21 C-2.38644918 4.77289837 -2.38644918 4.77289837 0 0 Z " fill="#4C5259" transform="translate(403,200)"/>
<path d="M0 0 C3.96 0 7.92 0 12 0 C11.34 1.65 10.68 3.3 10 5 C7.875 5.8125 7.875 5.8125 6 6 C6 5.01 6 4.02 6 3 C4.02 2.34 2.04 1.68 0 1 C0 0.67 0 0.34 0 0 Z " fill="#14202A" transform="translate(228,241)"/>
<path d="M0 0 C8.25 0.33 16.5 0.66 25 1 C25 1.33 25 1.66 25 2 C21.77138267 2.19789024 18.54210273 2.38146345 15.3125 2.5625 C14.40048828 2.61857422 13.48847656 2.67464844 12.54882812 2.73242188 C11.21948242 2.80493164 11.21948242 2.80493164 9.86328125 2.87890625 C9.05157471 2.9260376 8.23986816 2.97316895 7.40356445 3.02172852 C4.8210515 2.99838228 2.51150091 2.5804792 0 2 C0 1.34 0 0.68 0 0 Z " fill="#172026" transform="translate(149,301)"/>
<path d="M0 0 C0.66 0.33 1.32 0.66 2 1 C-2.47630908 4.03233841 -8.72352394 7.60696298 -14.27734375 6.578125 C-14.84582031 6.38734375 -15.41429687 6.1965625 -16 6 C-16 5.67 -16 5.34 -16 5 C-15.14728516 4.83564453 -15.14728516 4.83564453 -14.27734375 4.66796875 C-10.3473723 3.86097962 -6.71733948 2.99341774 -3.0625 1.3125 C-1.5465625 0.6628125 -1.5465625 0.6628125 0 0 Z " fill="#464D50" transform="translate(307,375)"/>
<path d="M0 0 C4.62 0 9.24 0 14 0 C14 0.66 14 1.32 14 2 C12.39125 2.12375 12.39125 2.12375 10.75 2.25 C6.66499825 3.06700035 5.65108323 3.9561637 3 7 C2.34 7 1.68 7 1 7 C0.67 4.69 0.34 2.38 0 0 Z " fill="#626B71" transform="translate(226,239)"/>
<path d="M0 0 C0.99 0 1.98 0 3 0 C1.58192622 4.47238653 -0.11304374 8.71146306 -2 13 C-2.33 13 -2.66 13 -3 13 C-3.04254356 11.00045254 -3.04080783 8.99958364 -3 7 C-2.67 6.67 -2.34 6.34 -2 6 C-2 5.01 -2 4.02 -2 3 C-1.34 3 -0.68 3 0 3 C0 2.01 0 1.02 0 0 Z " fill="#54616A" transform="translate(344,169)"/>
<path d="M0 0 C0.33 0 0.66 0 1 0 C1.3125 2.25 1.3125 2.25 1 5 C-1.3125 7.3125 -1.3125 7.3125 -4 9 C-4.99 9 -5.98 9 -7 9 C-6.34 7.68 -5.68 6.36 -5 5 C-4.34 5 -3.68 5 -3 5 C-3 4.34 -3 3.68 -3 3 C-2.34 3 -1.68 3 -1 3 C-0.67 2.01 -0.34 1.02 0 0 Z " fill="#494F54" transform="translate(210,222)"/>
<path d="M0 0 C0.70640625 0.05220703 1.4128125 0.10441406 2.140625 0.15820312 C3.88579987 0.28791207 5.63045725 0.42454954 7.375 0.5625 C7.375 0.8925 7.375 1.2225 7.375 1.5625 C0.67886804 2.360337 -5.88266581 2.69160853 -12.625 2.5625 C-8.02710511 -0.50276326 -5.36812594 -0.43083668 0 0 Z " fill="#171F26" transform="translate(174.625,277.4375)"/>
<path d="M0 0 C1.890625 0.21484375 1.890625 0.21484375 4 1 C5.046875 3.06640625 5.046875 3.06640625 5.75 5.5625 C5.99234375 6.38878906 6.2346875 7.21507812 6.484375 8.06640625 C6.65453125 8.70449219 6.8246875 9.34257812 7 10 C5.68 9.67 4.36 9.34 3 9 C2.814375 8.13375 2.814375 8.13375 2.625 7.25 C1.99358009 4.97688833 1.08053418 3.08903274 0 1 C0 0.67 0 0.34 0 0 Z " fill="#4A5057" transform="translate(283,230)"/>
<path d="M0 0 C-0.66 1.65 -1.32 3.3 -2 5 C-2.99 5 -3.98 5 -5 5 C-5.33 3.35 -5.66 1.7 -6 0 C-3.50907189 -1.24546405 -2.58919267 -0.7767578 0 0 Z " fill="#A0A4A3" transform="translate(164,397)"/>
<path d="M0 0 C3.63 0.33 7.26 0.66 11 1 C11 1.33 11 1.66 11 2 C4.62641289 2.96205088 -1.55929529 3.10655578 -8 3 C-8 2.67 -8 2.34 -8 2 C-5.36 1.67 -2.72 1.34 0 1 C0 0.67 0 0.34 0 0 Z " fill="#696E71" transform="translate(266,384)"/>
<path d="M0 0 C0.66 1.32 1.32 2.64 2 4 C0.68 5.32 -0.64 6.64 -2 8 C-2.99 7.34 -3.98 6.68 -5 6 C-2.25 1.125 -2.25 1.125 0 0 Z " fill="#333C40" transform="translate(214,279)"/>
<path d="M0 0 C3.28212246 0.43761633 4.84832931 1.52557871 7 4 C6.34 4.66 5.68 5.32 5 6 C1.60085025 4.86695008 0.94745549 3.87481525 -1 1 C-0.67 0.67 -0.34 0.34 0 0 Z " fill="#10202E" transform="translate(208,228)"/>
<path d="M0 0 C0.33 0 0.66 0 1 0 C1.33 1.98 1.66 3.96 2 6 C0.35 7.32 -1.3 8.64 -3 10 C-2.25 3.375 -2.25 3.375 0 0 Z " fill="#474E52" transform="translate(115,159)"/>
<path d="M0 0 C2.64 0 5.28 0 8 0 C8.66 1.32 9.32 2.64 10 4 C8.72125 3.896875 7.4425 3.79375 6.125 3.6875 C5.04605469 3.60048828 5.04605469 3.60048828 3.9453125 3.51171875 C2 3 2 3 0 0 Z " fill="#383E44" transform="translate(199,377)"/>
<path d="M0 0 C0.66 0.33 1.32 0.66 2 1 C0.68 2.65 -0.64 4.3 -2 6 C-3.65 5.67 -5.3 5.34 -7 5 C-4.88437775 2.67281553 -2.94982021 1.14186589 0 0 Z " fill="#5A6265" transform="translate(177,97)"/>
<path d="M0 0 C6.625 0.75 6.625 0.75 10 3 C9.34 3.66 8.68 4.32 8 5 C5.36 4.01 2.72 3.02 0 2 C0 1.34 0 0.68 0 0 Z " fill="#3E4A4E" transform="translate(293,85)"/>
<path d="M0 0 C-0.33 0.66 -0.66 1.32 -1 2 C-5.29105809 3.09771253 -8.69211856 2.92311745 -13 2 C-13 1.67 -13 1.34 -13 1 C-8.59085217 -0.10228696 -4.51617599 -0.07654536 0 0 Z " fill="#8A8F8C" transform="translate(306,408)"/>
<path d="M0 0 C0.99 0.33 1.98 0.66 3 1 C3 1.99 3 2.98 3 4 C3.66 4.33 4.32 4.66 5 5 C4.67 5.66 4.34 6.32 4 7 C3.01 6.67 2.02 6.34 1 6 C1 5.34 1 4.68 1 4 C-0.32 3.67 -1.64 3.34 -3 3 C-2.01 2.67 -1.02 2.34 0 2 C0 1.34 0 0.68 0 0 Z " fill="#54595F" transform="translate(172,362)"/>
<path d="M0 0 C1.32 0.66 2.64 1.32 4 2 C3.34 2 2.68 2 2 2 C2 2.66 2 3.32 2 4 C-0.375 5.0625 -0.375 5.0625 -3 6 C-3.66 5.67 -4.32 5.34 -5 5 C-4.67 4.01 -4.34 3.02 -4 2 C-2.68 2 -1.36 2 0 2 C0 1.34 0 0.68 0 0 Z " fill="#4B6064" transform="translate(345,353)"/>
<path d="M0 0 C-0.66 0.66 -1.32 1.32 -2 2 C-4.1640625 1.9765625 -4.1640625 1.9765625 -6.625 1.625 C-7.44226563 1.51414062 -8.25953125 1.40328125 -9.1015625 1.2890625 C-9.72804687 1.19367188 -10.35453125 1.09828125 -11 1 C-7.01647791 -1.30903272 -4.49885947 -0.86516528 0 0 Z M-9 2 C-8.01 2.495 -8.01 2.495 -7 3 C-7.99 3.495 -7.99 3.495 -9 4 C-9 3.34 -9 2.68 -9 2 Z " fill="#424B52" transform="translate(192,300)"/>
<path d="M0 0 C2 1 2 1 3.125 4.0625 C3.41375 5.031875 3.7025 6.00125 4 7 C3.01 7.33 2.02 7.66 1 8 C-1 5 -1 5 -0.625 2.3125 C-0.41875 1.549375 -0.2125 0.78625 0 0 Z " fill="#454D54" transform="translate(386,156)"/>
<path d="M0 0 C0.33 0.66 0.66 1.32 1 2 C0.06421005 4.35981813 -0.93347808 6.69631264 -2 9 C-2.103125 8.360625 -2.20625 7.72125 -2.3125 7.0625 C-2.539375 6.381875 -2.76625 5.70125 -3 5 C-3.99 4.67 -4.98 4.34 -6 4 C-5.01 4 -4.02 4 -3 4 C-2.67 3.01 -2.34 2.02 -2 1 C-1.34 0.67 -0.68 0.34 0 0 Z " fill="#626979" transform="translate(318,230)"/>
<path d="M0 0 C0.66 0.33 1.32 0.66 2 1 C1.01 2.485 1.01 2.485 0 4 C-0.66 4 -1.32 4 -2 4 C-2 4.66 -2 5.32 -2 6 C-3.65 6 -5.3 6 -7 6 C-4.74259377 3.66475218 -2.7194239 1.81294927 0 0 Z " fill="#585F62" transform="translate(162,106)"/>
<path d="M0 0 C1.65 0.33 3.3 0.66 5 1 C3.68 2.32 2.36 3.64 1 5 C0.01 4.34 -0.98 3.68 -2 3 C-1.34 2.01 -0.68 1.02 0 0 Z " fill="#455552" transform="translate(349,349)"/>
<path d="M0 0 C1.32 0 2.64 0 4 0 C3.42415568 2.38564077 2.77772405 4.66682784 2 7 C1.34 6.67 0.68 6.34 0 6 C0.33 5.34 0.66 4.68 1 4 C0.34 3.67 -0.32 3.34 -1 3 C-0.67 2.01 -0.34 1.02 0 0 Z " fill="#58636B" transform="translate(388,299)"/>
<path d="M0 0 C0.33 1.65 0.66 3.3 1 5 C-0.32 5.33 -1.64 5.66 -3 6 C-3.66 5.01 -4.32 4.02 -5 3 C-2.25 0 -2.25 0 0 0 Z " fill="#16242F" transform="translate(254,297)"/>
<path d="M0 0 C0.99 0.66 1.98 1.32 3 2 C0.69 3.65 -1.62 5.3 -4 7 C-4.66 6.67 -5.32 6.34 -6 6 C-4 3 -4 3 -1 2 C-0.67 1.34 -0.34 0.68 0 0 Z " fill="#0F1C27" transform="translate(245,290)"/>
<path d="M0 0 C0.75 1.6875 0.75 1.6875 1 4 C-0.9375 6.75 -0.9375 6.75 -3 9 C-3.75 7.3125 -3.75 7.3125 -4 5 C-2.0625 2.25 -2.0625 2.25 0 0 Z " fill="#656D74" transform="translate(326,210)"/>
<path d="M0 0 C-0.33 0.99 -0.66 1.98 -1 3 C-2.98 3 -4.96 3 -7 3 C-7.33 2.34 -7.66 1.68 -8 1 C-5.07175348 0.02391783 -3.04386724 -0.08226668 0 0 Z " fill="#8A9190" transform="translate(340,402)"/>
<path d="M0 0 C0.33 1.32 0.66 2.64 1 4 C-0.98 4.66 -2.96 5.32 -5 6 C-4.75 4.125 -4.75 4.125 -4 2 C-1.9375 0.75 -1.9375 0.75 0 0 Z " fill="#1A242D" transform="translate(324,274)"/>
<path d="M0 0 C1.99097846 2.98646769 2.94124926 5.59687262 4 9 C3.01 8.67 2.02 8.34 1 8 C-0.35439668 5.29120665 -0.06501451 2.99066732 0 0 Z " fill="#585C5E" transform="translate(298,258)"/>
<path d="M0 0 C0.66 1.32 1.32 2.64 2 4 C0.35 5.65 -1.3 7.3 -3 9 C-2.01 6.03 -1.02 3.06 0 0 Z " fill="#767981" transform="translate(338,233)"/>
<path d="M0 0 C2.4294516 3.6441774 2.16179575 5.71241272 2 10 C-0.58787727 7.41212273 -0.62709152 5.57992139 -1 2 C-0.67 1.34 -0.34 0.68 0 0 Z " fill="#3A4146" transform="translate(403,200)"/>
<path d="M0 0 C1.32 0.66 2.64 1.32 4 2 C3.01 2.33 2.02 2.66 1 3 C1 3.66 1 4.32 1 5 C-0.32 5.33 -1.64 5.66 -3 6 C-1.125 1.125 -1.125 1.125 0 0 Z " fill="#4D5558" transform="translate(124,144)"/>
<path d="M0 0 C1.65 0.99 3.3 1.98 5 3 C4.01 3.66 3.02 4.32 2 5 C2 4.34 2 3.68 2 3 C0.68 3.33 -0.64 3.66 -2 4 C-1 1 -1 1 0 0 Z " fill="#4D5558" transform="translate(348,112)"/>
</svg>
