<?xml version="1.0" encoding="UTF-8"?>
<svg xmlns="http://www.w3.org/2000/svg" height="56" viewBox="0 0 196 56" width="196">
  <g fill="none" fill-rule="evenodd">
    <g fill="#000">
      <path d="m113.082056 14.2266772c.040188-.435254.176967-.8669865.408928-1.2966061.23055-.4275067.503404-.7712024.816445-1.0296785 1.484124.8972712 2.858967 1.346611 4.125937 1.346611.585189 0 1.030779-.138746 1.33818-.4183509.305285-.2781963.458986-.6155533.458986-1.0092539 0-.6803484-.456871-1.2254723-1.368497-1.6318502l-2.409852-1.02052266c-1.933945-.84374473-2.89986-2.088233-2.89986-3.7341691 0-1.23744532.468856-2.25022072 1.40939-3.04043907.939123-.78810548 2.175071-1.18321465 3.706434-1.18321465 1.532068 0 3.04651.38736194 4.54403 1.1634944-.068389.93812019-.421618 1.7212956-1.061801 2.34600477-1.388238-.66555824-2.615021-.99939381-3.676822-.99939381-.558398 0-.987067.13240736-1.286007.39722206-.299645.26551901-.44982.56836561-.44982.90783553 0 .5444196.422323 1.00080239 1.26697 1.3670355l2.450745 1.02052264c.980721.42187236 1.739352.97615209 2.277303 1.66283916.537246.68668707.805869 1.46563673.805869 2.33614463 0 1.2930846-.458986 2.3396661-1.378368 3.1418575-.917971.8028956-2.23641 1.2043435-3.95179 1.2043435-.844647 0-1.725956-.1359289-2.645338-.4084908-.918677-.2718577-1.745697-.645838-2.481062-1.121941"></path>
      <path d="m128.715566 8.06431214c-.21081.5444196-.315862 1.31350913-.315862 2.30585996 0 .9930552.105052 1.7586232.315862 2.2952956.210809.5373766.623261.8057128 1.235948.8057128.612686 0 1.023728-.2683362 1.236653-.8057128.209399-.5366724.315156-1.3022404.315156-2.2952956 0-.99235083-.105757-1.76144036-.315156-2.30585996-.212925-.54301101-.623967-.81557295-1.236653-.81557295-.612687 0-1.025139.27256194-1.235948.81557295m4.442503-1.89736921c.981426.98037786 1.470729 2.37699372 1.470729 4.19266477 0 1.8163754-.489303 3.2136955-1.470729 4.1933691-.803754.8028956-1.871901 1.2043435-3.206555 1.2043435-1.33395 0-2.403507-.4014479-3.206556-1.2043435-.980721-.9796736-1.470729-2.3769937-1.470729-4.1933691 0-1.81567105.490008-3.21228691 1.470729-4.19266477.803049-.78810547 1.872606-1.18321465 3.206556-1.18321465 1.334654 0 2.402801.39510918 3.206555 1.18321465"></path>
      <path d="m136.453602 12.043787v-4.26520711c0-.85571774-.163571-1.52268457-.490008-1.99878761.503403-.43525396 1.092823-.65217664 1.766848-.65217664.674026 0 1.137242.15564907 1.389649.4683558.251702.31341102.3772.78247111.3772 1.40788457v4.46874819c0 .5028662.06839.8669865.204464 1.0909521.136779.2246699.37438.3359484.714918.3359484.585189 0 1.136536-.2514331 1.654746-.7542993v-6.85489775c.420913-.08240245.925727-.12254723 1.510917-.12254723.585189 0 1.102694.04014478 1.551809.12254723v7.26338855c0 .7486649.190363 1.2585741.571793 1.5297275-.053583.2718576-.176261.5542797-.366624.8472662-.191773.2915779-.389186.5197693-.592945.6831656-1.088593-.0408491-1.866261-.5162478-2.328772-1.4276048-1.035009.9648833-2.041817 1.4480293-3.022538 1.4480293-.980016 0-1.714675-.3296098-2.206093-.9895337-.490008-.6599238-.735364-1.5269103-.735364-2.6009593"></path>
      <path d="m154.461499 5.26960139c.08249.3676417.122678.72824045.122678 1.08179626 0 .35285151-.040188.71345026-.122678 1.08179625l-2.450745-.04225767v4.87723897c0 .6387951.299645.9585447.898936.9585447h1.184479c.163571.4894847.246062.9254429.246062 1.3057619 0 .3810233-.028907.6528809-.082491.8162773-.980721.1359288-1.879656.2035411-2.696101.2035411-1.674488 0-2.511379-.911357-2.511379-2.7333668v-5.40686833l-1.593407.02112883c-.08249-.30002943-.122678-.65992389-.122678-1.08179625 0-.42187237.040188-.78247112.122678-1.08179626l1.593407.02112884v-1.24519256c0-.68034843.121268-1.15645147.366625-1.42830912.246061-.27115336.666975-.40778648 1.26697-.40778648h1.185185l.141714.14226748v2.95874092z"></path>
      <path d="m165.568463 8.69712069v4.24478261c0 .8698036.155815 1.5438134.470266 2.0192121-.531605.435254-1.12737.6521766-1.787295.6521766-.660629 0-1.113975-.1563533-1.357921-.4697643-.245356-.3120025-.36874-.7881055-.36874-1.4269006v-4.44832362c0-.50216193-.066979-.86698645-.203758-1.09095208-.136075-.22466992-.381431-.33735703-.73466-.33735703-.572498 0-1.123845.25847605-1.654746.77613246v6.83447317c-.422323.0824025-.908806.1225473-1.460153.1225473-.550642 0-1.058981-.0401448-1.522197-.1225473v-14.87258556l.143829-.14367606h1.18448c.59929 0 1.023729.14015459 1.275431.4176466.253112.28030918.37861.75218646.37861 1.4177447v3.99968809c.925022-.77542817 1.852159-1.16279011 2.777887-1.16279011.925727 0 1.633594.32608833 2.123602.97967356.490008.65288094.735365 1.52338887.735365 2.61081947"></path>
      <path d="m172.83595 7.66701965c-.23196-.34721715-.589419-.51976929-1.073082-.51976929-.483662 0-.836891.17043925-1.061801.50990917-.22491.34017421-.357459.87050792-.397647 1.59029684h2.880119v-.24368588c0-.5444196-.116333-.98953368-.347589-1.33675084m2.89986 3.68275565h-5.412649c.041598.6521766.205169 1.1599729.490713 1.5191631.28625.3605987.789653.5408981 1.511622.5408981.721968 0 1.578601-.2112884 2.572718-.6317521.423028.4077864.700817 1.0127754.837596 1.815671-1.102694.7747239-2.436644 1.1634944-4.003259 1.1634944-.844647 0-1.572961-.1471975-2.185647-.4394797-.611981-.2929865-1.082248-.6965472-1.408684-1.2134993-.599291-.9937595-.898936-2.2650109-.898936-3.815163 0-1.55156061.37438-2.82351636 1.123141-3.81516292.749465-.99375945 1.831713-1.49028703 3.247448-1.49028703 1.41644 0 2.501508.4049693 3.258024 1.21420361s1.133011 1.84666001 1.133011 3.11157282c0 .70711162-.088131 1.38746002-.265098 2.04034102"></path>
      <path d="m177.598193 6.69833309c.053583-.27256195.176967-.56413985.368035-.87825516.190362-.31270673.380725-.54301101.572498-.69302573 1.211271.12184294 2.041112.73528339 2.490932 1.83609559.517505-1.20997784 1.374843-1.81637535 2.574128-1.81637535.449116 0 .89118.05563927 1.3269.16339631 0 .39440489-.06839.86698645-.203759 1.418449-.136074.55075825-.320092 1.02333981-.552052 1.4177447-.286249-.09507975-.626082-.15564908-1.020909-.18382085-.721263 0-1.306453.36764169-1.756273 1.10222079v6.38583761c-.408927.0824025-.905986.1225473-1.491175.1225473-.585894 0-1.102694-.0401448-1.552514-.1225473v-6.65206091c0-1.01981834-.252407-1.71988701-.755811-2.100206"></path>
      <path d="m195.433917 8.69712069v4.24478261c0 .8698036.164276 1.5438134.491418 2.0192121-.53231.435254-1.12737.6521766-1.787295.6521766-.660629 0-1.1175-.1563533-1.369202-.4697643-.251702-.3120025-.3772-.7881055-.3772-1.4269006v-4.44832362c0-.50216193-.06839-.87050792-.205169-1.1008122-.136074-.23171287-.37438-.34721716-.714213-.34721716-.585189 0-1.144292.26481471-1.674487.79585271v6.83447317c-.422324.0824025-.922907.1225473-1.501046.1225473-.579549 0-1.092824-.0401448-1.542644-.1225473v-10.16015149l.14242-.14367607h1.144997c.843236 0 1.380482.40849078 1.612443 1.22547232.994822-.84374473 1.960737-1.2656171 2.90127-1.2656171.939123 0 1.653336.32608833 2.144754.97967356.490008.65288094.733954 1.52338887.733954 2.61081947"></path>
      <path d="m122.642005 21.3196264v4.1426599c.898231-.0267632 1.442527-.0415534 1.633595-.0415534 1.319849 0 1.980478-.6796441 1.980478-2.0396367 0-1.3599925-.660629-2.0403409-1.980478-2.0403409-.681076 0-1.226077-.0063387-1.633595-.0211289m6.800887 2.0614698c0 .911357-.248881 1.7001668-.745235 2.3671336-.497058.6655583-1.080132 1.1219411-1.746402 1.3656269.694472.2457988 1.211271.8648736 1.551104 1.8565202l.654284 1.8163753c.231256.652881.565448 1.1494085 1.000462 1.4888785-.203053.2718576-.497058.4965275-.877784.6733054-.38143.1767779-.810099.2662233-1.286006.2662233-.478022 0-.844647-.1359288-1.104104-.4084907-.258753-.2718577-.503404-.7409178-.73466-1.4078846l-.776257-2.2227533c-.136074-.4225766-.337717-.7486649-.602815-.9803778-.265098-.2303043-.656399-.3465129-1.173199-.3465129h-.960275v5.1821985c-.408927.0824024-.927137.1225472-1.553219.1225472s-1.136536-.0401448-1.532068-.1225472v-13.833047l.14383-.1422675c2.287173-.054935 3.893976-.0824024 4.819704-.0824024 1.484124 0 2.676359.3704588 3.57459 1.1120809.898935.7409177 1.34805 1.839617 1.34805 3.2953936"></path>
      <path d="m136.250477 25.4086191c-.23196-.3472172-.589419-.5197693-1.071672-.5197693-.483662 0-.837596.1704392-1.061801.5099091-.22491.3401742-.358869.870508-.399057 1.5902969h2.880119v-.2436859c0-.5444196-.115628-.9895337-.347589-1.3367508m2.90127 3.6827556h-5.412648c.040187.6521766.203053 1.1599729.489303 1.5191631.286249.3605987.789653.5408981 1.511621.5408981.721264 0 1.580011-.2112884 2.574128-.6317521.420913.4077864.700817 1.0127754.837596 1.815671-1.104104.7747239-2.438758 1.1634944-4.003964 1.1634944-.844646 0-1.572255-.1471975-2.184942-.4394797-.612686-.2929865-1.082247-.6965472-1.409389-1.2134993-.599996-.9937595-.898231-2.2650109-.898231-3.815163 0-1.5515606.374381-2.8235164 1.123141-3.8151629.74876-.9930552 1.830303-1.490287 3.247448-1.490287 1.41503 0 2.501508.4049693 3.258024 1.2142036.755106.8092343 1.133011 1.84666 1.133011 3.1115728 0 .7071116-.088836 1.3881643-.265098 2.040341"></path>
      <path d="m146.951405 30.0315373v-4.4673396c-.503404-.476103-.980016-.7141546-1.429131-.7141546-.994117 0-1.491881 1.0472859-1.491881 3.1418575 0 .9381202.119858 1.6381889.357459 2.1009103.238306.4627215.554873.6944343.950404.6944343.58519 0 1.123141-.2514331 1.613149-.7557079m-5.115824 1.7755263c-.619737-.9515018-.929253-2.2516293-.929253-3.8968611 0-1.6459361.390597-2.9481765 1.173904-3.9074256.783308-.9585447 1.729481-1.4381692 2.839226-1.4381692s2.031947.3197497 2.767311.9585447c.462511-.5028662 1.082953-.7747239 1.858505-.8155729.205169.1500147.401877.380319.592945.6930257.190363.3141153.30599.6000588.347588.8571263-.382136.2859436-.572498.7958527-.572498 1.5304318v5.4885666c0 2.3121986-.341243 3.9102427-1.020909 4.7941322-.776257.9789692-2.035472 1.4691582-3.779054 1.4691582-1.320554 0-2.586114-.2239657-3.79809-.6726012 0-.368346.07121-.7655681.213629-1.1951877.14383-.4275067.324322-.7634551.541477-1.0085496.89823.4084908 1.818317.6113276 2.75744.6113276 1.41503 0 2.123603-.7268319 2.123603-2.1826085v-.6944343c-.735365.5585055-1.524313.8367018-2.36896.8367018-1.211976 0-2.127833-.476103-2.746864-1.4276048"></path>
      <path d="m152.885929 19.9535769c0-.3951091.074735-.7761324.224911-1.1430698.38143-.2035411.881309-.3063681 1.501045-.3063681.619737 0 1.099874.102827 1.439707.3063681.150175.3669374.22491.7479607.22491 1.1430698 0 .3937006-.074735.7754282-.22491 1.1416613-.339833.2049497-.836891.3063681-1.491175.3063681-.653579 0-1.137241-.1014184-1.449577-.3063681-.150176-.3662331-.224911-.7479607-.224911-1.1416613m3.655671 5.1814942v7.8958449c-.408927.0824025-.905986.1232515-1.49047.1232515-.585189 0-1.103399-.040849-1.553219-.1232515v-6.8548977c0-.7747239-.318682-1.1627901-.95957-1.1627901h-.286249c-.080376-.33947-.121268-.6937301-.121268-1.0606675 0-.3676417.040892-.7211975.121268-1.062076.681781-.0676122 1.25992-.1014184 1.737237-.1014184h.407517c.66768 0 1.192235.2105841 1.572961.6324564.38143.4218724.571793.9937595.571793 1.7135484"></path>
      <path d="m161.88177 25.6449098c-.210809.5444196-.315861 1.3135092-.315861 2.30586 0 .9930552.105052 1.7586232.315861 2.2952956.210809.5373766.623967.8057128 1.236653.8057128.611981 0 1.023729-.2683362 1.235948-.8057128.210104-.5366724.315861-1.3022404.315861-2.2952956 0-.9923508-.105757-1.7614404-.315861-2.30586-.212219-.543011-.623967-.8155729-1.235948-.8155729-.612686 0-1.025844.2725619-1.236653.8155729m4.443209-1.8973692c.980721.9803779 1.470023 2.3769937 1.470023 4.1926648 0 1.8163754-.489302 3.2136955-1.470023 4.1933691-.804459.8028956-1.872606 1.2043435-3.206556 1.2043435-1.334655 0-2.404211-.4014479-3.20726-1.2043435-.980721-.9796736-1.470024-2.3769937-1.470024-4.1933691 0-1.8156711.489303-3.2122869 1.470024-4.1926648.803049-.7881054 1.872605-1.1832146 3.20726-1.1832146 1.33395 0 2.402097.3951092 3.206556 1.1832146"></path>
      <path d="m178.394826 26.2777184v4.2447825c0 .870508.164276 1.5438135.490713 2.0192122-.531606.435254-1.126666.6521766-1.78659.6521766-.66063 0-1.1175-.1563533-1.369202-.4697643-.251702-.3120025-.377201-.7881055-.377201-1.4269006v-4.4483236c0-.502162-.068389-.8705079-.205168-1.1008122-.136075-.2317129-.374381-.3472172-.714213-.3472172-.58519 0-1.144292.2648147-1.674488.7958527v6.8344732c-.422323.0824025-.922907.1225473-1.501046.1225473-.579549 0-1.092823-.0401448-1.541938-.1225473v-10.1601515l.142419-.1436761h1.144292c.843237 0 1.380483.4084908 1.612443 1.2254724.994822-.8437448 1.960737-1.2656171 2.90127-1.2656171.939123 0 1.653336.3260883 2.144754.9796735.490008.652881.733955 1.5233889.733955 2.6108195"></path>
      <path d="m184.23706 31.0728366c.530196 0 1.061801-.2246699 1.591997-.6733055v-1.6938281c-.29894-.0133816-.706458-.0204245-1.224667-.0204245-.912332 0-1.367792.4563828-1.367792 1.3670355 0 .2859435.090951.5275165.274968.724719.184018.1979067.425849.2958036.725494.2958036m5.20748.5507583c-.053584.2718576-.180492.5634355-.377905.8768465-.197414.3134111-.391302.5444196-.581665.6937301-.939123-.0401448-1.647695-.4007436-2.124307-1.0817963-.871439.8169816-1.835239 1.2254723-2.889285 1.2254723-1.05616 0-1.852864-.3127067-2.390815-.9395288-.537246-.6254134-.806574-1.3388637-.806574-2.1424636 0-1.1550429.384955-2.0332981 1.154162-2.631244.769912-.5986503 1.725956-.8979754 2.870248-.8979754.449115 0 .960275.0211288 1.530658.0612736v-.4486356c0-.8979754-.462511-1.3466109-1.388238-1.3466109-.58519 0-1.599753.2183312-3.042985.6521766-.408927-.4753987-.652874-1.1832146-.735364-2.1213348.639478-.272562 1.399519-.4894847 2.277303-.6521767.878489-.1633963 1.656861-.2457987 2.338642-.2457987 1.020909 0 1.875426.282422 2.562847.8472662.687421.5641398 1.031485 1.4374649 1.031485 2.6206796v4.1623801c0 .6402036.191772 1.0951778.571793 1.3677398"></path>
      <path d="m195.163109 30.8078106h.592945c.162866.435254.243946.8536049.243946 1.2543484 0 .4014478-.019036.6909129-.059929.8669865-.81715.1366331-1.600458.2035411-2.349923.2035411-.74876 0-1.313503-.2169227-1.694934-.6521767-.380725-.435254-.571088-1.1296883-.571088-2.08119v-12.2406373l.142419-.1436761h1.185185c.598585 0 1.023729.1394503 1.276136.4176466.251702.2796049.37861.7521865.37861 1.4177447v9.9981638c0 .6394994.286249.959249.856633.959249"></path>
      <path d="m137.24819 43.0035844v-.2035411c0-.8571264-.174147-1.5846625-.521735-2.1840171-.346178-.5972417-.956749-.8979754-1.828188-.8979754s-1.510916.4084908-1.919844 1.2254723c-.407517.8148687-.612686 1.9952662-.612686 3.5390796s.251702 2.6967434.756516 3.4580856c.503404.7620466 1.235243 1.1430699 2.194812 1.1430699.960275 0 2.100336-.483146 3.421595-1.4487336.313041.2176269.616212.5204735.908101.9078355.2933.3873619.473792.7514822.541477 1.0916564-.612687.6120318-1.415736 1.1254625-2.409852 1.5402919-.994117.4141251-1.964262.6233006-2.910436.6233006-.946879 0-1.742172-.1401546-2.389406-.4197595-.646528-.2781963-1.178134-.6451337-1.593407-1.1015165-.414568-.4549742-.758631-1.0036196-1.030779-1.6417103-.503404-1.1698331-.756516-2.5227827-.756516-4.0609618 0-2.4340415.554873-4.2630942 1.664617-5.4878622 1.109745-1.224768 2.482472-1.8367999 4.116772-1.8367999 1.633595 0 2.930177.4021521 3.889746 1.2043435.960275.8028957 1.440412 1.8029938 1.440412 2.99959 0 1.1416613-.59224 1.7135484-1.776719 1.7135484-.381431 0-.776963-.0542307-1.18448-.1633963"></path>
      <path d="m145.291371 44.1047487c-.21081.5444196-.316567 1.3135091-.316567 2.30586 0 .9930551.105757 1.7586232.316567 2.2952956.211514.5366723.622556.8057128 1.236653.8057128.611981 0 1.023728-.2690405 1.234538-.8057128.211514-.5366724.317271-1.3022405.317271-2.2952956 0-.9923509-.105757-1.7614404-.317271-2.30586-.21081-.543011-.622557-.815573-1.234538-.815573-.614097 0-1.025139.272562-1.236653.815573m4.443208-1.8973692c.979311.9803779 1.469319 2.3769937 1.469319 4.1933691 0 1.815671-.490008 3.2129912-1.469319 4.1926647-.804459.8028957-1.874016 1.2043435-3.206555 1.2043435-1.336065 0-2.404212-.4014478-3.207261-1.2043435-.980016-.9796735-1.470024-2.3769937-1.470024-4.1926647 0-1.8163754.490008-3.2129912 1.470024-4.1933691.803049-.7881055 1.871196-1.1832147 3.207261-1.1832147 1.332539 0 2.402096.3951092 3.206555 1.1832147"></path>
      <path d="m156.835534 49.2677904h.592945c.163571.4352539.243947.8536048.243947 1.2543483 0 .4007436-.019037.6909129-.059929.8669865-.81715.1359288-1.600458.2035411-2.349218.2035411-.748761 0-1.314209-.2169227-1.695639-.6521767-.380726-.4352539-.571089-1.1296882-.571089-2.08119v-12.2413416l.14242-.1429718h1.185185c.598585 0 1.023728.1394503 1.276135.4176466.251702.2796049.378611.7521865.378611 1.4177447v9.9981638c0 .6387951.286249.9592491.856632.9592491"></path>
      <path d="m163.279174 49.2677904h.591535c.163571.4352539.245356.8536048.245356 1.2543483 0 .4007436-.020446.6909129-.061339.8669865-.816445.1359288-1.599047.2035411-2.348513.2035411-.74876 0-1.314208-.2169227-1.694934-.6521767-.382135-.4352539-.572498-1.1296882-.572498-2.08119v-12.2413416l.14383-.1429718h1.185184c.597175 0 1.023729.1394503 1.275431.4176466.251702.2796049.377905.7521865.377905 1.4177447v9.9981638c0 .6387951.285544.9592491.858043.9592491"></path>
      <path d="m171.116833 43.7076675c-.23196-.3472172-.589419-.5197693-1.071672-.5197693-.483662 0-.836891.1704393-1.061801.5099092s-.358869.8705079-.399057 1.5902968h2.880119v-.2436859c0-.5451239-.114923-.9895336-.347589-1.3367508m2.90127 3.6820513h-5.413354c.040893.652881.203759 1.1606772.490008 1.5198674.28625.3605988.789653.5408981 1.510917.5408981.722673 0 1.580716-.2112883 2.574833-.6317521.420913.4070822.700817 1.0127754.837596 1.8149668-1.104104.7754282-2.438759 1.1634944-4.003964 1.1634944-.843942 0-1.572256-.1471976-2.184942-.4387754-.612686-.2929865-1.082247-.6965472-1.408684-1.2142037-.600701-.9930551-.898936-2.2650109-.898936-3.8151629 0-1.5508564.37438-2.8228121 1.123141-3.8144587.74876-.9937594 1.830303-1.490287 3.247448-1.490287 1.41503 0 2.501508.4049693 3.258024 1.2142036.755106.8092343 1.133011 1.84666 1.133011 3.1108685 0 .7078159-.088131 1.3881644-.265098 2.040341"></path>
      <path d="m182.274349 48.491517v-4.4673396c-.503404-.476103-.979311-.7141545-1.429131-.7141545-.994117 0-1.49188 1.0472858-1.49188 3.1418574 0 .9381202.119858 1.6381889.357459 2.1009103.238306.4620172.554872.6944344.950404.6944344.585189 0 1.12314-.2514332 1.613148-.755708m-5.115824 1.7755263c-.619736-.9515018-.929252-2.2516293-.929252-3.8975654 0-1.6452318.390596-2.9474722 1.173904-3.9067212.782602-.9592491 1.729481-1.4381693 2.839225-1.4381693 1.109745 0 2.031947.3197497 2.767311.9585447.462512-.5028662 1.082953-.7747238 1.858505-.8155729.205169.1500147.401877.380319.592945.6930257.190363.3141153.305286.6000589.347589.8571263-.382136.2859436-.572499.7958528-.572499 1.5304319v5.4878622c0 2.3129029-.341243 3.910947-1.020909 4.7948365-.776257.9789693-2.035471 1.4691582-3.779053 1.4691582-1.320554 0-2.586114-.2239656-3.798091-.6726012 0-.368346.07121-.765568.21363-1.1951876.143829-.4275068.324321-.7634552.541476-1.009254.89823.4084908 1.817612.6120319 2.756735.6120319 1.415735 0 2.124308-.7268319 2.124308-2.1826085v-.6944343c-.735364.5585055-1.525017.8367018-2.368959.8367018-1.211977 0-2.127833-.476103-2.746865-1.4276048"></path>
      <path d="m192.731118 43.7076675c-.23196-.3472172-.589419-.5197693-1.071672-.5197693-.483662 0-.836891.1704393-1.061801.5099092s-.358869.8705079-.399057 1.5902968h2.880119v-.2436859c0-.5451239-.114923-.9895336-.347589-1.3367508m2.90127 3.6820513h-5.412648c.040187.652881.203053 1.1606772.489302 1.5198674.28625.3605988.789653.5408981 1.511622.5408981s1.580011-.2112883 2.574128-.6317521c.420913.4070822.700817 1.0127754.837596 1.8149668-1.104104.7754282-2.438759 1.1634944-4.003964 1.1634944-.843942 0-1.572255-.1471976-2.184942-.4387754-.612686-.2929865-1.082247-.6965472-1.408684-1.2142037-.600701-.9930551-.898936-2.2650109-.898936-3.8151629 0-1.5508564.37438-2.8228121 1.123141-3.8144587.74876-.9937594 1.830303-1.490287 3.247448-1.490287 1.41503 0 2.501508.4049693 3.258024 1.2142036.755106.8092343 1.133011 1.84666 1.133011 3.1108685 0 .7078159-.088131 1.3881644-.265098 2.040341"></path>
    </g>
    <path d="m73.2628838 1.79419007h-3.0225382c-3.8460335 0-7.4897183.85430915-10.5482139 2.31853729-.0987066-1.19448337-1.0885932-2.13612503-2.3097352-2.13612503h-10.8993275c-1.2860065 0-2.3287715 1.04165147-2.3287715 2.32628452v9.14526325 21.4570343 15.1705021c0 .8169815.6627445 1.4790183 1.4798944 1.4790183h16.1723769c.817855 0 1.4798945-.6620368 1.4798945-1.4790183v-32.0848373c1.8824765-.9409374 4.3289909-1.5078944 6.9538823-1.5078944h3.0225382c.9299575 0 1.6272493-.5570969 1.6272493-1.3022404v-12.0856925c0-.74373493-.6972918-1.30083183-1.6272493-1.30083183" fill="#761468"></path>
    <path d="m5.06929069 35.265431c.18049213-.543011.72408366-.633865 1.17601904-.3620074 3.53087729 2.0797815 7.33249277 3.7067016 10.41072967 3.7067016 1.9008077.1810037 3.1670728-.904314 3.1670728-2.2607851 0-4.61172-19.8231122-3.1636906-19.8231122-20.1639497 0-9.67489264 8.23706859-16.1853904 20.547901-16.1853904 5.8836204 0 12.9439649 2.07978147 17.7418123 5.15473097.4526404.36059875.7233786.81346007.5428865 1.26491281l-4.6166503 10.66935642c-.1804921.5437153-.7240836.633865-1.176724.3627116-3.5301723-2.2607851-7.3317878-3.7074059-10.4093196-3.7074059-1.9015128-.1810037-3.168483.7233104-3.168483 2.1706355 0 4.7920193 19.8238173 3.0735409 19.8238173 20.2548036 0 9.6748927-7.9656253 16.1846861-20.0050144 16.1846861-5.8829154 0-13.2154082-2.0797814-18.28469889-5.1540266-.45264042-.4514528-.72337862-.9043141-.54288649-1.4459165z" fill="#e27e00"></path>
    <path d="m115.180841 50.7163127-1.895872-4.7722991c-.008461-.0302846-.004935-.0612736-.016216-.090854l-3.94756-9.934073c-.152291-.385249-.590125-.5739999-.977196-.4225766 0 0-2.431003 1.4923999-6.157179 1.1557471-5.4267496-.6796441-8.6650322-5.1758598-7.9275527-11.1581367.5083392-4.1250525 2.6157258-7.0936536 5.6248681-8.3691308l1.0462906-.4796245c.387071-.1521276.576728-.5873815.424438-.9719263l-3.946855-9.93407302-1.9402904-4.88357761c-.1128076-.28312636-.4343092-.42257666-.7184433-.31129814l-1.3797778.43947973c-9.4680813 2.99395564-15.7669746 10.96516004-17.1629684 22.28951024-1.9621469 15.9205758 7.6455338 27.9393603 23.9384739 29.9437823 4.937447.6071018 9.499808.1683263 13.519283-1.1782846l1.149228-.4803288c.334897-.1317031.499878-.5085006.367329-.8423362" fill="#00abc8"></path>
  </g>
</svg>
